<svg xmlns="http://www.w3.org/2000/svg" xmlns:xlink="http://www.w3.org/1999/xlink" viewBox="0 0 500 347.18"><defs><style>.cls-1{fill:#1b1b1b;}.cls-2{fill:url(#linear-gradient);}.cls-3{fill:url(#linear-gradient-2);}.cls-4{fill:none;stroke-linecap:round;stroke-miterlimit:10;stroke-width:29px;stroke:url(#linear-gradient-3);}.cls-5{fill:url(#linear-gradient-4);}.cls-6{fill:url(#linear-gradient-5);}.cls-10,.cls-7{fill-rule:evenodd;}.cls-7{fill:url(#linear-gradient-6);}.cls-8{fill:url(#linear-gradient-7);}.cls-9{fill:url(#linear-gradient-8);}.cls-10{fill:url(#linear-gradient-9);}</style><linearGradient id="linear-gradient" x1="474.45" y1="168.89" x2="500" y2="168.89" gradientUnits="userSpaceOnUse"><stop offset="0" stop-color="#69bf64"/><stop offset="1" stop-color="#2ab34b"/></linearGradient><linearGradient id="linear-gradient-2" x1="0.9" y1="168.89" x2="24.54" y2="168.89" xlink:href="#linear-gradient"/><linearGradient id="linear-gradient-3" x1="203.52" y1="141.75" x2="294.84" y2="141.75" xlink:href="#linear-gradient"/><linearGradient id="linear-gradient-4" x1="19.12" y1="173.59" x2="222.49" y2="173.59" xlink:href="#linear-gradient"/><linearGradient id="linear-gradient-5" x1="2.06" y1="176.03" x2="234.49" y2="176.03" xlink:href="#linear-gradient"/><linearGradient id="linear-gradient-6" x1="-864.29" y1="-221.66" x2="-761.46" y2="-221.66" gradientTransform="translate(-644.37 526.29) rotate(140)" xlink:href="#linear-gradient"/><linearGradient id="linear-gradient-7" x1="-942.45" y1="173.59" x2="-739.08" y2="173.59" gradientTransform="matrix(-1, 0, 0, 1, -464.1, 0)" xlink:href="#linear-gradient"/><linearGradient id="linear-gradient-8" x1="495.42" y1="176.03" x2="262.99" y2="176.03" xlink:href="#linear-gradient"/><linearGradient id="linear-gradient-9" x1="200.65" y1="515.93" x2="303.49" y2="515.93" gradientTransform="matrix(0.77, 0.64, 0.64, -0.77, -148.06, 406.79)" xlink:href="#linear-gradient"/></defs><g id="Layer_2" data-name="Layer 2"><rect class="cls-1" width="500" height="347.18" rx="158.76"/><rect class="cls-2" x="474.45" y="157.07" width="25.55" height="23.64"/><rect class="cls-3" x="0.9" y="157.07" width="23.64" height="23.64"/><path class="cls-4" d="M218,149.26s28.11-33.79,62.32,0"/><path class="cls-5" d="M75.29,243.33l3.07,1.82a84.07,84.07,0,0,0,42.84,11.73h0a84.16,84.16,0,1,0-71.29-39.43l2,3.18-8.51,31.05Zm-56.17,32.4,14.37-52.45A101.26,101.26,0,1,1,121.23,274h0A101.18,101.18,0,0,1,72.8,261.65Z"/><path class="cls-6" d="M121.23,71.45a101.27,101.27,0,0,1,0,202.53h0A101.18,101.18,0,0,1,72.8,261.65L19.12,275.73l14.37-52.45A101.28,101.28,0,0,1,121.23,71.45M43.43,251.68l31.86-8.35,3.07,1.82a84.07,84.07,0,0,0,42.84,11.73h0a84.17,84.17,0,0,0,.23-168.33h-.19a84.17,84.17,0,0,0-71.33,128.9l2,3.18-8.51,31.05M121.24,59.45h0A113.27,113.27,0,0,0,20.64,224.78L7.55,272.56,2.06,292.61l20.11-5.27,49.22-12.91a113.27,113.27,0,1,0,49.85-215ZM60.5,234.8l3-11,1.4-5.09-2.82-4.47-2-3.18a72.18,72.18,0,0,1,61.18-110.51h.19a72.17,72.17,0,1,1-37,134.28L81.4,233l-4.31-2.55-4.85,1.27L60.5,234.8Z"/><path class="cls-7" d="M168,190.48c4.16,2,5.75.79,7.17-.31l3.76-3.07a9.32,9.32,0,0,0,3.13-6.76c.15-3.43,1.22-12.32-6.78-21.86s-22.68-12.92-24.73-13.41-31.44-10.23-57.66-1.47c-21.79,7.28-24,11.36-27.33,14.67S58,172.58,60.18,178.46s5.44,9.76,6.6,10.16,2.86-.2,5.62-.85,16.21-4,18.53-4.81,3.88-1.61,3.55-4.63-.29-10.5-.24-12.75,1-3.35,3.79-4,10.71-3.85,23.66-3.46a76.56,76.56,0,0,1,22,4.37c2.76,1,2.63,2.89,2.47,4.67-.14,1.6,0,3.89-.06,5.84a17.57,17.57,0,0,0,.77,4.86,4.66,4.66,0,0,0,3,3.25c1.3.57,13.11,7,18.05,9.38"/><path class="cls-8" d="M454.05,251.68l-8.51-31.05,2-3.18a84.16,84.16,0,1,0-71.29,39.43h0a84.07,84.07,0,0,0,42.84-11.73l3.07-1.82Zm-29.37,10A101.18,101.18,0,0,1,376.29,274h0A101.25,101.25,0,1,1,464,223.28l14.37,52.45Z"/><path class="cls-9" d="M376.25,71.45A101.28,101.28,0,0,1,464,223.28l14.37,52.45-53.68-14.08A101.18,101.18,0,0,1,376.29,274h0a101.27,101.27,0,1,1,0-202.53m0,185.43h0a84.07,84.07,0,0,0,42.84-11.73l3.07-1.82,31.86,8.35-8.51-31.05,2-3.18a84.17,84.17,0,0,0-71.33-128.9H376a84.17,84.17,0,0,0,.23,168.33m0-197.43h0a113.27,113.27,0,0,0,0,226.53,113.67,113.67,0,0,0,49.84-11.55l49.22,12.91,20.11,5.27-5.49-20.05-13.09-47.78A113.27,113.27,0,0,0,376.25,59.45Zm0,197.43v-12A72.17,72.17,0,0,1,376,100.55h.16a72.17,72.17,0,0,1,61.2,110.52l-2,3.17-2.82,4.47,1.4,5.09,3,11-11.74-3.08-4.85-1.27L416.08,233,413,234.83a72.12,72.12,0,0,1-36.73,10l0,12Z"/><path class="cls-10" d="M329.51,190.48c4.94-2.39,16.75-8.81,18.05-9.38a4.66,4.66,0,0,0,3-3.25,17.57,17.57,0,0,0,.77-4.86c0-2,.08-4.24-.06-5.84-.16-1.78-.29-3.68,2.47-4.67a76.56,76.56,0,0,1,22-4.37c12.95-.39,20.91,2.8,23.66,3.46s3.75,1.77,3.79,4,.1,9.72-.24,12.75,1.23,3.79,3.55,4.63,15.78,4.15,18.53,4.81,4.45,1.26,5.62.85,4.41-4.28,6.6-10.16-2.07-16.89-5.35-20.19-5.54-7.39-27.33-14.67c-26.22-8.76-55.6,1-57.66,1.47s-16.73,3.87-24.73,13.41-6.93,18.43-6.78,21.86a9.32,9.32,0,0,0,3.13,6.76l3.76,3.07c1.42,1.1,3,2.32,7.17.31"/></g></svg>